<svg xmlns="http://www.w3.org/2000/svg" viewBox="0 0 16 16" width="512" height="512" shape-rendering="crispEdges">
  <!-- Фон -->
  <rect width="16" height="16" fill="#1a1b26"/>
  <!-- Тело призрака (пиксельный стиль) -->
  <rect x="5" y="2" width="6" height="1" fill="#d4a574"/>
  <rect x="4" y="3" width="8" height="1" fill="#d4a574"/>
  <rect x="3" y="4" width="10" height="1" fill="#d4a574"/>
  <rect x="3" y="5" width="10" height="1" fill="#d4a574"/>
  <rect x="3" y="6" width="10" height="1" fill="#d4a574"/>
  <rect x="3" y="7" width="10" height="1" fill="#d4a574"/>
  <rect x="3" y="8" width="10" height="1" fill="#d4a574"/>
  <rect x="3" y="9" width="10" height="1" fill="#d4a574"/>
  <rect x="3" y="10" width="10" height="1" fill="#d4a574"/>
  <rect x="3" y="11" width="10" height="1" fill="#d4a574"/>
  <rect x="3" y="12" width="3" height="1" fill="#d4a574"/>
  <rect x="7" y="12" width="2" height="1" fill="#d4a574"/>
  <rect x="10" y="12" width="3" height="1" fill="#d4a574"/>
  <rect x="3" y="13" width="2" height="1" fill="#d4a574"/>
  <rect x="7" y="13" width="2" height="1" fill="#d4a574"/>
  <rect x="11" y="13" width="2" height="1" fill="#d4a574"/>
  <!-- Глаза -->
  <rect x="5" y="6" width="2" height="2" fill="#1a1b26"/>
  <rect x="9" y="6" width="2" height="2" fill="#1a1b26"/>
  <!-- Блики глаз -->
  <rect x="5" y="6" width="1" height="1" fill="#e8d4b8"/>
  <rect x="9" y="6" width="1" height="1" fill="#e8d4b8"/>
</svg>
